<?xml version="1.0" encoding="UTF-8"?>
<svg xmlns="http://www.w3.org/2000/svg" xmlns:xlink="http://www.w3.org/1999/xlink" width="30pt" height="30pt" viewBox="0 0 30 30" version="1.1">
<g id="surface1">
<path style=" stroke:none;fill-rule:nonzero;fill:rgb(100%,90.196078%,0%);fill-opacity:1;" d="M 15 3.128906 C 11.140625 3.128906 7.523438 5.003906 5.304688 8.15625 C 9.738281 14.835938 16.730469 19.152344 24.59375 19.152344 C 25.117188 19.152344 25.636719 19.128906 26.148438 19.09375 C 27.480469 15.453125 26.953125 11.390625 24.734375 8.210938 C 22.515625 5.035156 18.886719 3.136719 15.007812 3.132812 Z M 15 3.128906 "/>
<path style=" stroke:none;fill-rule:nonzero;fill:rgb(30.980392%,26.666667%,0%);fill-opacity:1;" d="M 15.214844 8.957031 C 15.214844 10.78125 13.734375 12.265625 11.90625 12.265625 C 10.078125 12.265625 8.597656 10.78125 8.597656 8.957031 C 8.597656 7.128906 10.078125 5.648438 11.90625 5.648438 C 13.734375 5.648438 15.214844 7.128906 15.214844 8.957031 Z M 15.214844 8.957031 "/>
<path style=" stroke:none;fill-rule:nonzero;fill:rgb(30.980392%,26.666667%,0%);fill-opacity:1;" d="M 22.605469 10.394531 C 22.605469 11.878906 21.402344 13.082031 19.917969 13.082031 C 18.433594 13.082031 17.230469 11.878906 17.230469 10.394531 C 17.230469 8.910156 18.433594 7.707031 19.917969 7.707031 C 21.402344 7.707031 22.605469 8.910156 22.605469 10.394531 Z M 22.605469 10.394531 "/>
<path style=" stroke:none;fill-rule:nonzero;fill:rgb(30.980392%,26.666667%,0%);fill-opacity:1;" d="M 23.5625 16.199219 C 23.5625 16.703125 23.15625 17.113281 22.652344 17.113281 C 22.148438 17.113281 21.738281 16.703125 21.738281 16.199219 C 21.738281 15.695312 22.148438 15.289062 22.652344 15.289062 C 23.15625 15.289062 23.5625 15.695312 23.5625 16.199219 Z M 23.5625 16.199219 "/>
<path style=" stroke:none;fill-rule:nonzero;fill:rgb(30.980392%,26.666667%,0%);fill-opacity:1;" d="M 15 30.007812 C 6.714844 30.007812 0 23.292969 0 15.007812 C 0 6.726562 6.714844 0.0117188 15 0.0117188 C 23.28125 0.0117188 29.996094 6.726562 29.996094 15.007812 C 29.988281 23.289062 23.277344 29.996094 15 30.007812 Z M 10.609375 25.996094 C 13.566406 27.179688 16.875 27.125 19.789062 25.835938 C 18.746094 25.023438 18.335938 23.632812 18.769531 22.382812 C 19.203125 21.132812 20.382812 20.292969 21.707031 20.296875 C 22.90625 20.300781 23.996094 20.992188 24.511719 22.078125 C 28.183594 17.152344 27.480469 10.234375 22.886719 6.148438 C 18.296875 2.066406 11.34375 2.171875 6.878906 6.398438 C 2.414062 10.621094 1.925781 17.558594 5.75 22.367188 C 6.847656 21.398438 8.476562 21.332031 9.652344 22.207031 C 10.828125 23.085938 11.226562 24.667969 10.609375 25.996094 Z M 14.75 24.25 C 13.828125 24.25 13.085938 23.507812 13.085938 22.585938 C 13.085938 21.667969 13.828125 20.921875 14.75 20.921875 C 15.667969 20.921875 16.414062 21.667969 16.414062 22.585938 C 16.410156 23.503906 15.667969 24.25 14.75 24.25 Z M 5.441406 17.917969 C 4.972656 17.917969 4.589844 17.539062 4.589844 17.066406 C 4.589844 16.597656 4.972656 16.21875 5.441406 16.21875 C 5.910156 16.21875 6.292969 16.597656 6.292969 17.066406 C 6.292969 17.539062 5.910156 17.917969 5.441406 17.917969 Z M 5.441406 17.917969 "/>
<path style=" stroke:none;fill-rule:nonzero;fill:rgb(60%,52.54902%,0%);fill-opacity:1;" d="M 21.6875 20.292969 C 22.890625 20.292969 23.980469 20.984375 24.496094 22.070312 C 25.167969 21.160156 25.710938 20.160156 26.101562 19.097656 L 25.804688 19.097656 C 25.402344 19.121094 25 19.136719 24.59375 19.136719 C 24.351562 19.136719 24.105469 19.136719 23.859375 19.136719 C 23.304688 19.117188 22.753906 19.078125 22.207031 19.015625 C 15.335938 18.242188 9.308594 14.171875 5.332031 8.191406 C 2.300781 12.480469 2.464844 18.257812 5.738281 22.367188 C 6.839844 21.398438 8.46875 21.332031 9.644531 22.207031 C 10.816406 23.085938 11.21875 24.667969 10.601562 25.996094 C 13.554688 27.179688 16.863281 27.125 19.777344 25.835938 C 18.734375 25.023438 18.328125 23.632812 18.757812 22.382812 C 19.191406 21.132812 20.371094 20.292969 21.695312 20.296875 Z M 5.429688 17.929688 C 4.957031 17.929688 4.578125 17.546875 4.578125 17.078125 C 4.578125 16.609375 4.957031 16.226562 5.429688 16.226562 C 5.898438 16.226562 6.277344 16.609375 6.277344 17.078125 C 6.269531 17.539062 5.890625 17.910156 5.429688 17.910156 Z M 14.734375 24.261719 C 13.816406 24.261719 13.070312 23.515625 13.070312 22.597656 C 13.070312 21.679688 13.816406 20.933594 14.734375 20.933594 C 15.652344 20.933594 16.398438 21.679688 16.398438 22.597656 C 16.386719 23.507812 15.648438 24.242188 14.734375 24.246094 Z M 14.734375 24.261719 "/>
</g>
</svg>
